<svg xmlns="http://www.w3.org/2000/svg" width="21" height="20" fill="none" xmlns:v="https://vecta.io/nano"><path d="M17.559 1.667H3.442a1.21 1.21 0 0 0-.859.342 1.21 1.21 0 0 0-.366.85v14.283a1.21 1.21 0 0 0 .366.85 1.21 1.21 0 0 0 .859.342h14.117a1.21 1.21 0 0 0 .859-.342c.114-.111.205-.243.267-.388a1.21 1.21 0 0 0 .098-.461V2.858a1.21 1.21 0 0 0-.098-.461c-.063-.146-.153-.278-.267-.388a1.21 1.21 0 0 0-.859-.342zM7.242 15.617h-2.5v-7.5h2.5v7.5zm-1.25-8.55a1.3 1.3 0 0 1-1.3-1.3 1.3 1.3 0 0 1 1.3-1.3 1.31 1.31 0 0 1 1.019.324 1.31 1.31 0 0 1 .437.976 1.31 1.31 0 0 1-.437.976 1.31 1.31 0 0 1-1.019.324zm10.267 8.55h-2.5v-4.025c0-1.008-.358-1.667-1.267-1.667-.281.002-.555.09-.784.253s-.404.391-.499.656a1.67 1.67 0 0 0-.083.608v4.167h-2.5v-7.5h2.5v1.058a2.5 2.5 0 0 1 2.258-1.25c1.667 0 2.875 1.075 2.875 3.383v4.317z" fill="#fff"/></svg>