<svg xmlns="http://www.w3.org/2000/svg" width="21" height="20" fill="none" xmlns:v="https://vecta.io/nano"><path d="M19.667 8.092c.041-1.193-.22-2.377-.758-3.442-.366-.437-.873-.732-1.433-.833a65.3 65.3 0 0 0-6.975-.258c-2.319-.04-4.639.043-6.95.25a2.39 2.39 0 0 0-1.217.617C1.584 5.117 1.5 6.3 1.417 7.3c-.121 1.798-.121 3.602 0 5.4a7.96 7.96 0 0 0 .25 1.667c.1.421.304.81.592 1.133.339.336.772.563 1.242.65a37.64 37.64 0 0 0 5.417.275l8.5-.233a2.4 2.4 0 0 0 1.275-.65c.233-.234.407-.519.508-.833.298-.915.444-1.872.433-2.833.033-.467.033-3.283.033-3.783zm-11.05 4.283V7.217l4.933 2.592-4.933 2.567z" fill="#fff"/></svg>