<svg xmlns="http://www.w3.org/2000/svg" width="348" height="167" fill="none" xmlns:v="https://vecta.io/nano"><g clip-path="url(#A)" fill-rule="evenodd" fill="#1a1a1a"><path d="M300.585 3.284c-.292-.419-.714-.267-.451-2.081.984-2.972-.269.558-.153.053.145.877.682.45 1.011.403l-.407 1.625zm13.364 165.101l11.748-7.783c3.701 4.63 7.639 9.88 11.399 15.234-3.443 3.03-7.112 5.986-11.072 9.38-3.875-5.654-8.014-11.272-12.075-16.831zm13.511-8.911c3.522-2.094 6.704-4.323 9.861-6.143 3.51 4.133 6.874 8.431 10.459 13.049l-9.032 7.759-11.288-14.665zm-201.002-22.641l34.985-7.747 12.475 20.176c-10.548 2.941-22.186 6.731-35.072 10.592l-12.389-23.021h.001zm72.462-7.646l24.171-5.322 11.959 15.953-23.814 7.439c-3.938-6.086-8.226-12.337-12.316-18.072v.002zm10.321-39.776l19.83-1.04 10.36 11.601c-6.118.557-12.614 1.264-19.525 2.276-3.449-4.433-6.892-8.727-10.665-12.837zm51.741 81.344l18.4-9.204 12.304 17.358-17.865 12.244c-4.352-7.343-8.549-13.838-12.839-20.4v.002zm21.932-11.273l15.027-7.203c3.778 4.85 7.572 9.968 11.371 15.227-4.481 3.109-9.171 6.079-14.29 9.044l-12.108-17.067v-.001zm17.765-8.592c4.303-2.436 8.422-4.234 12.508-6.015l10.956 13.85c-3.865 2.173-7.906 4.695-11.979 7.495l-11.485-15.33zm14.296-6.513c3.631-1.761 7.216-3.417 10.706-4.882 3.091 3.906 6.361 7.799 9.588 11.693l-9.927 6.35-10.365-13.161h-.002zm23.066-10.714c2.885-1.049 5.403-2.224 7.905-3.381l8.068 9.231-7.193 4.442-8.78-10.293v.001zm9.234-3.924l6.783-3.15c2.507 2.725 4.826 5.378 7.42 8.323l-6.116 3.958-8.087-9.131zm-103.911-21.985l16.83-2.341c3.373 4.054 6.772 7.964 10.349 12.033-5.155 1.088-10.642 2.116-16.486 3.561l-10.694-13.253h.001zm3.138-38.26l14.393.712 8.466 8.331c-4.562.027-9.128-.037-14.04-.104-2.849-3.025-5.864-5.983-8.817-8.939h-.002zm-25.261 87.827l23.016-8.355c4.174 5.978 8.428 12.316 12.565 18.724-6.85 3.51-14.395 7.074-22.105 10.68l-13.475-21.047-.001-.002zm49.277-16.951l15.605-5.426c3.535 4.358 7.233 9.091 10.781 13.958l-14.854 7.087c-3.708-5.407-7.703-10.705-11.533-15.619h.001zm18.39-6.29c4.647-1.562 9-2.941 13.172-4.202l10.382 12.493c-3.969 1.696-8.013 3.401-12.387 5.522-3.79-4.87-7.421-9.56-11.167-13.813zm14.97-4.661l11.304-3.726 9.274 10.931-10.619 4.87-9.957-12.077-.002.002zm13.737-4.466l9.486-2.906 8.902 10.084-9.014 3.894c-3.078-3.917-6.322-7.587-9.374-11.072zm10.933-3.214l8.391-2.554c2.647 2.862 5.346 5.939 7.862 8.919-2.441 1.069-4.95 2.257-7.863 3.246l-8.388-9.611h-.002zm9.83-3.017l7.318-1.973 7.224 7.847-6.699 2.877c-2.559-3.002-5.194-5.857-7.843-8.751zm8.377-2.305l6.293-1.946 6.618 7.175-5.716 2.478-7.196-7.707h.001zm-65.81-13.137l12.646-1.231 9.086 9.783c-3.903.656-7.801 1.441-12.176 2.328l-9.556-10.88zm14.485-1.524l10.889-1.252c2.932 3.013 5.831 6.094 8.553 9.111l-10.427 1.885-9.015-9.744zm12.55-1.437l9.626-.924 7.987 8.258-9.089 1.777c-2.757-3.114-5.666-6.187-8.524-9.112zm11.054-1.088l8.46-.704 7.446 7.679-7.983 1.185-7.925-8.16h.002zm9.774-.8l7.445-.736 6.933 7.094-7 1.273c-2.407-2.573-4.959-5.15-7.378-7.631zm8.571-.777l6.472-.556 6.407 6.438-6.044 1.033-6.833-6.915h-.002zm7.425-.628l5.781-.532 6.059 6.047c-1.67.392-3.584.591-5.382.857l-6.458-6.37v-.002zm3.106-12.28l-9.632-.416c-.639-.059-1.361-.113-2.108-.34 3.559.34 6.819.264 9.965.453.741.276 1.305.177 1.775.305v-.001zm-62.015 6.441l11.398-.62c2.833 2.84 5.633 5.73 8.366 8.671l-10.932 1.124a316.72 316.72 0 0 0-8.83-9.176l-.002.001zm13.118-.72l10.031-.264 7.837 7.995-9.552.793c-2.705-2.862-5.556-5.754-8.316-8.523v-.002zm11.547-.276l8.938-.14c2.455 2.34 4.903 4.83 7.28 7.394-2.714.148-5.522.345-8.449.688-2.436-2.609-5.206-5.37-7.771-7.943l.002.001zm10.285-.224l7.81-.088 6.871 6.751-7.428.685-7.253-7.347zm9.011-.145l6.866-.047 6.466 6.311-6.537.508-6.795-6.771zm7.896-.123l6.194-.104 6.007 5.922c-1.781.345-3.713.431-5.736.572l-6.466-6.39h.001zm7.124-.081l5.364.04 5.669 5.414-5.058.441-5.975-5.894zm-68.868-8.966l11.899.197 8.145 8.096-11.442.476-8.602-8.767v-.002zm13.647.32c3.654.012 7.19.172 10.479.281l7.698 7.535c-3.199-.032-6.628.02-10.083.18-2.641-2.781-5.34-5.386-8.094-7.995zm12.142.308l9.338.325 7.172 7.084-8.884.123-7.624-7.532h-.002zm10.699.34l8.179.372 6.847 6.574c-2.561.012-5.167-.015-7.957.04l-7.069-6.986zm9.558.488l7.231.256 6.374 6.15-6.94.069-6.665-6.475z"/><path d="M330.457 82.4l6.354.328 6.129 5.746-6.222.04-6.261-6.114zm7.581.56l5.782.38 5.747 5.539-5.548-.239-5.981-5.678v-.002zm-57.181-10.781l10.871.648 7.58 7.407c-3.431-.232-6.861-.256-10.579-.364-2.526-2.569-5.164-5.133-7.871-7.69h-.001zm12.611.894l9.685.781 7.098 6.754-9.362-.367-7.421-7.167zm11.142.904l8.585.832 6.766 6.37-8.351-.552-7-6.651zm9.954.931l7.623.616 6.337 6.005-7.374-.348-6.586-6.274zm8.854.766l6.757.685 5.984 5.594-6.466-.364-6.275-5.914zm13.604 2.116l5.583.621 5.505 5.091-5.318-.308-5.77-5.402v-.002zm6.646.712l4.855.453 4.853 4.589-4.46-.18-5.248-4.862zm-58.702-13.301l10.036 1.189 7.067 6.547-9.804-.985-7.299-6.751zm11.563 1.349l9.006 1.128 6.653 6.202-8.665-.793-6.994-6.539v.002zm10.397 1.292l8.07 1.081 6.21 5.719-7.658-.613-6.622-6.187zm9.252 1.265l7.074.992 6.013 5.431-6.826-.741-6.261-5.682zm14.412 2.557l5.77.793 5.484 5.086-5.577-.624-5.677-5.254v-.001zm7.101 1.304l5.115.808 5.233 4.705-4.927-.473-5.422-5.042.001.002zm-60.058-15.867l10.278 1.636 6.99 6.175c-3.297-.505-6.626-.865-10.028-1.305l-7.238-6.507-.002.002zm11.831 1.799l9.313 1.511 6.498 5.847-9.004-1.261-6.807-6.097zm-8.343-7.213l9.485 1.785 6.529 5.716-9.34-1.538-6.675-5.963h.001zm-35.631 2.054l13.275 1.691c2.777 2.395 5.32 4.853 7.78 7.158-4.052-.34-8.366-.828-12.941-1.32-2.603-2.487-5.31-5.007-8.113-7.527l-.001-.002zm100.572 51.84l5.923-1.089 6.521 6.767-5.444 1.668-7-7.348v.002zm-7.781 1.636l6.832-1.32 6.995 7.35-6.328 1.929-7.499-7.959zm-9.842 1.429l7.878-1.325c2.528 2.522 5.093 5.281 7.605 7.975-2.33.557-4.846 1.156-7.355 1.985-2.763-3.037-5.394-5.857-8.129-8.635h.001zm-10.121 1.793l8.879-1.828 8.192 8.727-8.54 2.425-8.531-9.323v-.001zm-12.032 2.149c3.61-.628 7.19-1.172 10.282-2.064l8.65 9.611c-3.07.889-6.293 1.793-9.707 2.653l-9.226-10.2h.001zm-13.631 2.885l11.808-2.493 9.433 10.525c-3.826 1.059-7.354 2.381-11.403 3.416l-9.838-11.448zm-15.755 3.609l13.789-2.857 9.914 11.453c-4.139 1.369-8.523 2.709-13.122 4.081L276.9 119.082zM112.914 97.11l8.974-7.318 13.546 7.638c-2.533 2.646-5.04 5.419-8.071 8.256l-14.447-8.576h-.002zm153.184-5.125l3.718-3.414 5.398 3.793c-1.123 1.185-2.184 2.458-3.323 3.889l-5.795-4.269h.002zm49.167-46.244l1.335-2.276 4.93 4.109c-.258.886-.624 1.695-1.037 2.563l-5.227-4.396h-.001zM58.426 173.755l11.16-8.564c4.656 1.434 9.225 3.13 14.018 4.75-3.476 2.817-6.898 5.862-10.414 9.143l-14.767-5.33.002.001zM304.123 55.657c.384-.422.687-.834.988-1.23l3.062 2.212-.738 1.43-3.312-2.413v.002zm-35.43-19.322l2.675-1.066 3.961 2.787-2.448 1.339-4.188-3.058v-.002zM71.489 72.516l10.339-4.077 11.977 5.178-9.479 4.81-12.837-5.911zm212.234-38.538c.56-.264.979-.61 1.423-.871l3.114 2.247c-.377.334-.724.729-1.178 1.034l-3.359-2.41zm23.363-5.76c.297-.216.622-.383.914-.582l2.352 1.781c-.256.232-.478.466-.706.735l-2.56-1.933zm-251.483 93.93l6.968-3.565 9.552 2.678-6.396 3.793-10.124-2.906zm192.541-91.869l2.65-.735 3.836 2.503-2.341.944-4.145-2.712zm33.83-20.616c.583-.108 1.166-.201 1.738-.23.961.61 1.876 1.307 2.796 1.974l-1.642.319-2.892-2.063zm14.514 25.256l1.54-.436 2.615 1.826-1.439.512-2.717-1.903h.001zm12.474 13.603l1.512-.502 2.442 1.615-1.44.564-2.514-1.677zm-82.363 7.275l3.309-.89 4.222 2.254-3.222.904-4.309-2.267zm95.182 4.63l1.438-.581 2.172 1.468-1.286.64-2.324-1.529v.002zm-6.233-20.181c.43-.111.851-.154 1.278-.233l1.912 1.305c-.352.076-.78.186-1.138.308l-2.052-1.378v-.002zM0 150.239l10.915-3.385c3.456.741 7.19 1.269 10.7 1.917a252.09 252.09 0 0 0-10.346 3.426L0 150.241v-.002zm268.333-134.29l2.156.044 2.535 1.634c-.69-.032-1.322.026-2.018.02l-2.671-1.699h-.002zm-95.89 66.388l5.374-1.061 4.899 1.765-5.172 1.128-5.099-1.833h-.002zm5.934 31.587l4.68-2.805 6.656 2.781-4.353 3.012-6.983-2.99v.002zm37.974-39.006l3.927-2.232 5.737 3.245-3.663 2.421-6.001-3.434z"/></g><defs><clipPath id="A"><path fill="#fff" transform="matrix(-1 0 0 1 398 0)" d="M0 0h398v217H0z"/></clipPath></defs></svg>