<svg xmlns="http://www.w3.org/2000/svg" width="258" height="395" fill="none" xmlns:v="https://vecta.io/nano"><g clip-path="url(#A)" fill-rule="evenodd" fill="#1a1a1a"><path d="M253.702 20.765c.549.383.349.937 2.724.592 3.889-1.29-.731.353-.07.201-1.147-.191-.589-.895-.527-1.326l-2.127.534zM-7.122 3.097C-.849-2.875 4.351-8.416 9.154-13.629a657.47 657.47 0 0 0-24.719-17.108c-3.153 2.575-6.693 5.203-10.438 7.955v14.071l18.88 11.808zm-9.584 78.956L2.462 54.061-26.002 37.236v39.842l9.296 4.975zM5.086 49.967l16.051-22.5-26.505-17.358c-6.248 6.751-13.203 13.66-19.958 21.557C-14.688 37.72-4.759 44.013 5.086 49.967zM23.454 24.14c3.855-6.662 8.107-12.558 12.066-18.292C28.44.559 21.017-4.906 13.273-10.187L-2.806 6.89c9.239 5.892 17.942 11.398 26.259 17.25zm14.17-20.902L47.811-12.17c-6.06-4.854-12.93-10.02-19.938-14.95-3.965 4.515-7.834 9.327-12.275 14.521C22.996-7.516 30.349-2.088 37.624 3.238zm41.295 245.905l10.138-45.885c-8.861-5.496-17.324-11.107-26.405-16.361-3.849 13.835-8.81 29.098-13.862 45.999l30.128 16.249v-.002zm10.007-95.039l6.966-31.701-20.88-15.684-9.736 31.233c7.966 5.165 16.147 10.788 23.651 16.152h-.002zm52.057-13.535l1.361-26.008-15.183-13.588c-.728 8.023-1.654 16.544-2.979 25.608 5.802 4.524 11.421 9.039 16.801 13.988zM-4.56 149.134l20.267-36.993C5.159 106.042-6.184 99.795-17.506 93.578L-26 105.228v33.438l21.44 10.468zm23.043-42.371l14.716-29.169c-8.73-5.751-18.1-11.878-27.768-17.411C-.59 68.879-6.77 78.232-13.427 88.517c11.15 5.942 21.508 12.145 31.91 18.246zm16.041-34.055L46.57 48.575 23.853 32.438 7.828 55.869c9.61 5.707 18.11 11.212 26.698 16.839h-.002zm14.754-28.767l9.426-19.708c-6.347-4.955-13.046-9.931-19.928-14.914-4.069 5.878-7.956 12.029-11.837 18.743l22.336 15.88h.002zm11.244-23.299c3.189-5.643 5.541-11.045 7.872-16.405L50.268-10.131C47.424-5.062 44.124.238 40.458 5.58l20.063 15.063zm8.523-18.751c2.305-4.762 4.472-9.464 6.389-14.041-5.112-4.054-10.206-8.342-15.303-12.574l-8.311 13.02L69.045 1.889v.002zm47.932 93.923l3.063-22.072c-5.306-4.425-10.422-8.882-15.747-13.574-1.425 6.761-2.77 13.957-4.662 21.623l17.346 14.025v-.002zm50.072-4.116l-.932-18.878-10.903-11.103.136 18.414c3.959 3.737 7.83 7.692 11.699 11.565v.002zM14.64 220.133l18.577-46.958c-10.567-5.724-21.923-11.85-34.089-17.437-7.531 14.42-15.177 29.525-23.358 46.412 13.219 5.71 26.317 11.876 38.87 17.981v.002zm37.465-95.303L63.04 94.642c-7.824-5.474-16.119-11.053-24.505-16.479-4.593 8.984-9.258 18.88-13.978 28.992l27.546 17.674.002.002zM74.29 60.2l7.102-20.467c-5.703-4.636-11.898-9.486-18.268-14.14L53.85 45.075c7.076 4.864 14.01 10.104 20.441 15.127V60.2zm8.232-24.12c2.043-6.095 3.849-11.804 5.499-17.276L71.671 5.188c-2.221 5.206-4.452 10.509-7.227 16.247 6.373 4.971 12.511 9.733 18.078 14.645zm6.1-19.634L93.499 1.62 79.192-10.543 72.819 3.384l15.805 13.06-.002.002zm34.209 30.078l1.612-16.586-12.804-11.916c-.858 5.119-1.886 10.231-3.047 15.97l14.239 12.532zm1.996-18.996l1.638-14.282c-3.943-3.845-7.976-7.648-11.925-11.218l-2.466 13.676 12.753 11.824zm1.879-16.462l1.209-12.625-10.809-10.475-2.325 11.92c4.075 3.616 8.098 7.431 11.925 11.18zm11.953 28.966l.812-14.948a446.71 446.71 0 0 0-11.348-10.973l-1.471 14.338a414.39 414.39 0 0 1 12.009 11.581l-.002.002zm.941-17.204l.345-13.156L129.482-.607c-.384 3.905-.681 8.147-1.038 12.528 3.745 3.548 7.531 7.287 11.154 10.907h.002zm.362-15.145l.184-11.724c-3.063-3.219-6.322-6.43-9.678-9.548-.194 3.56-.451 7.242-.9 11.081 3.414 3.195 7.028 6.829 10.396 10.192l-.002-.002zm12.484 45.316l-.257-15.607-10.596-10.682-.622 15.007 11.473 11.282h.002zm-.419-17.898c-.016-4.792-.225-9.43-.367-13.744l-9.861-10.096a237.97 237.97 0 0 1-.235 13.225c3.639 3.464 7.049 7.004 10.463 10.616zm-.403-15.925l-.425-12.247-9.271-9.406-.161 11.651 9.857 10v.002zm-.444-14.032l-.487-10.728c-2.907-3.131-5.699-5.972-8.604-8.98l-.052 10.437c3.089 2.958 6.158 6.117 9.143 9.271zm12.355 41.496l-.848-14.258-9.693-9.942c.303 4.499.335 8.998.476 13.875 3.363 3.313 6.719 6.773 10.065 10.323v.002zm-1.17-16.54c-.203-4.463-.586-8.565-1.021-12.703-2.892-3.145-5.839-6.191-8.84-9.309.335 4.02.345 7.933.481 12.279l9.38 9.733zm-1.182-14.613c-.304-3.929-.691-7.572-1.09-11.26-2.702-2.986-5.515-5.87-8.337-8.874.362 3.556.435 7.048.723 10.953l8.704 9.181zm-1.22-13.056l-.806-9.998-7.86-8.312.455 9.673 8.211 8.637zm12.705 38.819l-1.556-13.162-8.569-9.269c.555 4.274.797 8.286 1.289 12.859 3.021 3.125 5.867 6.371 8.836 9.572zm-1.766-15.165c-.435-3.991-.999-8.001-1.476-11.812l-8.117-8.725c.413 3.733.702 7.337 1.037 11.364l8.558 9.173h-.002zm-1.69-13.636c-.403-3.544-.88-7.02-1.415-10.584l-7.484-8.145a352.7 352.7 0 0 1 .802 10.044l8.097 8.685zM167.556.314l-1.299-9.277-7.108-7.887.97 8.952 7.437 8.212zm15.713 50.554l-2.141-13.479c-2.562-3.082-5.196-6.006-8.081-9.169.661 4.325 1.132 8.691 1.708 13.152 2.937 3.181 5.725 6.321 8.516 9.494l-.002.002zm-2.354-15.516l-1.977-12.215c-2.54-2.741-4.991-5.613-7.653-8.523l1.651 11.81 7.979 8.928zm9.439 10.941l-2.336-12.44-7.481-8.563 2.014 12.249 7.803 8.756v-.002zm-2.687 46.734l-2.213-17.411c-3.135-3.642-6.351-6.977-9.368-10.204.445 5.314 1.083 10.973 1.728 16.973l9.851 10.64.002.002zM110.65 13.288c.822-4.734 1.534-9.43 2.702-13.485l-12.579-11.344c-1.164 4.026-2.347 8.254-3.472 12.731l13.349 12.1v-.002zm-3.776 17.878l3.263-15.486L96.363 3.308c-1.387 5.017-3.117 9.645-4.472 14.954l14.983 12.904zm-4.723 20.664l3.74-18.085-14.99-13.002c-1.792 5.428-3.546 11.178-5.342 17.21L102.15 51.83zm28.756 215.077l9.577-11.77-9.996-17.766c-3.462 3.321-7.092 6.61-10.805 10.586l11.224 18.948v.002zm6.708-200.91l4.468-4.876-4.964-7.08c-1.551 1.473-3.217 2.864-5.091 4.359l5.587 7.6v-.002zm60.522-64.485l2.979-1.752-5.377-6.466c-1.16.339-2.219.819-3.355 1.361l5.753 6.855v.002zm-167.54 336.86l11.208-14.638c-1.876-6.106-4.096-12.098-6.216-18.386-3.688 4.56-7.672 9.047-11.966 13.658l6.976 19.368-.002-.002zM185.159 16.125c.553-.504 1.092-.901 1.611-1.296l-2.896-4.016-1.871.967 3.158 4.345h-.002zm25.287 46.469l1.395-3.508-3.648-5.196-1.752 3.211 4.003 5.493h.002zm-47.352 258.644l5.336-13.56-6.777-15.709-6.295 12.432 7.736 16.837zm50.437-278.356c.345-.735.798-1.284 1.139-1.866l-2.941-4.084c-.437.494-.954.949-1.353 1.545l3.155 4.405zm7.539-30.644c.283-.389.501-.815.762-1.198l-2.331-3.084a10.01 10.01 0 0 1-.961.925l2.53 3.357zM98.139 342.074c1.638-3.432 3.185-6.209 4.666-9.139L99.3 320.407c-1.519 2.518-3.288 5.37-4.965 8.388l3.803 13.279zM218.372 89.545l.962-3.476-3.276-5.031-1.236 3.07 3.55 5.436zm26.981-44.37c.142-.765.263-1.529.301-2.28-.798-1.26-1.71-2.46-2.584-3.666l-.417 2.153 2.7 3.793zm-33.054-19.036l.571-2.019-2.39-3.43-.671 1.886 2.49 3.564v-.002zM194.497 9.778l.656-1.983-2.113-3.203-.738 1.888 2.195 3.297zm-9.522 108.024l1.166-4.341-2.95-5.536-1.183 4.226 2.967 5.651zM205.328 1.141c.146-.564.202-1.116.306-1.676l-1.708-2.508c-.1.462-.244 1.023-.403 1.493l1.803 2.691h.002zM61.374 415l4.43-14.316c-.97-4.534-1.66-9.43-2.508-14.034-1.345 4.401-2.921 9.167-4.484 13.57l2.56 14.78h.002zM237.126 63.065l-.058-2.828-2.139-3.325c.042.905-.034 1.734-.026 2.647l2.223 3.504v.002zm-86.884 125.766l1.389-7.047-2.311-6.426-1.476 6.783 2.398 6.688v.002zm-41.34-7.782l3.671-6.138-3.639-8.73-3.943 5.709 3.913 9.159h-.002zm51.049-49.806l2.921-5.151-4.246-7.523-3.169 4.804 4.494 7.87z"/></g><defs><clipPath id="A"><path fill="#fff" transform="matrix(0 1 -1 0 258 -107)" d="M0 0h522v284H0z"/></clipPath></defs></svg>