<svg xmlns="http://www.w3.org/2000/svg" xmlns:xlink="http://www.w3.org/1999/xlink" width="46" height="20" fill="none" xmlns:v="https://vecta.io/nano"><g clip-path="url(#A)"><path d="M10 20.011c5.523 0 10-4.477 10-10s-4.477-10-10-10-10 4.477-10 10 4.477 10 10 10z" fill="#666"/><g fill="#141414"><path d="M0 30c5.523 0 10-4.477 10-10S5.523 10 0 10s-10 4.477-10 10 4.477 10 10 10z"/><path d="M20 30a10 10 0 1 0 0-20 10 10 0 1 0 0 20zM0 10A10 10 0 0 0 10 0 10 10 0 0 0 0-10 10 10 0 0 0-10 0 10 10 0 0 0 0 10z"/><path d="M20 10c5.523 0 10-4.477 10-10s-4.477-10-10-10S10-5.523 10 0s4.477 10 10 10z"/></g></g><g clip-path="url(#B)"><path d="M30 16.007a6 6 0 0 0 0-12 6 6 0 0 0 0 12z" fill="#333"/><g fill="#141414"><path d="M24 22a6 6 0 1 0 0-12 6 6 0 1 0 0 12z"/><path d="M36 22a6 6 0 1 0 0-12 6 6 0 1 0 0 12zM24 10a6 6 0 1 0 0-12 6 6 0 1 0 0 12z"/><path d="M36 10a6 6 0 1 0 0-12 6 6 0 1 0 0 12z"/></g></g><g clip-path="url(#C)"><path d="M42.8 12.803a2.8 2.8 0 0 0 0-5.6 2.8 2.8 0 0 0 0 5.6z" fill="#333"/><g fill="#141414"><use xlink:href="#D"/><path d="M45.6 15.6a2.8 2.8 0 1 0 0-5.6 2.8 2.8 0 1 0 0 5.6zM40 10a2.8 2.8 0 1 0 0-5.6 2.8 2.8 0 1 0 0 5.6z"/><path d="M45.6 10a2.8 2.8 0 1 0 0-5.6 2.8 2.8 0 1 0 0 5.6z"/></g></g><defs><clipPath id="A"><path fill="#fff" d="M0 0h20v20H0z"/></clipPath><clipPath id="B"><path fill="#fff" transform="translate(24 4)" d="M0 0h12v12H0z"/></clipPath><clipPath id="C"><path fill="#fff" transform="translate(40 7.2)" d="M0 0h5.6v5.6H0z"/></clipPath><path id="D" d="M40 15.6a2.8 2.8 0 1 0 0-5.6 2.8 2.8 0 1 0 0 5.6z"/></defs></svg>