<svg xmlns="http://www.w3.org/2000/svg" width="24" height="24" fill="#a685fa" xmlns:v="https://vecta.io/nano"><path d="M11.7 2.805a.75.75 0 0 1 .601 0A60.65 60.65 0 0 1 22.83 8.72a.75.75 0 0 1-.231 1.337 49.95 49.95 0 0 0-2.037.61 49.94 49.94 0 0 0-7.865 3.303l-.003.002-.34.18a.75.75 0 0 1-.707 0l-.343-.182A50.03 50.03 0 0 0 7.5 12.174v-.224c0-.131.067-.248.172-.311l4.653-2.52a.75.75 0 1 0-.649-1.352 56.12 56.12 0 0 0-4.781 2.589c-.453.275-.758.724-.858 1.228l-2.598-.918a49.75 49.75 0 0 0-2.037-.609.75.75 0 0 1-.231-1.337C4.457 6.416 7.981 4.43 11.7 2.805z"/><path d="M13.061 15.473a48.45 48.45 0 0 1 7.665-3.283l.256 4.285a.75.75 0 0 1-.461.711c-2.851 1.19-5.563 2.648-8.105 4.342a.75.75 0 0 1-.832 0 47.87 47.87 0 0 0-8.105-4.342.75.75 0 0 1-.461-.711l.255-4.285L6 13.18v1.27a1.5 1.5 0 0 0-.14 2.507c-.09.381-.222.753-.397 1.11l1.346.661c.253-.515.437-1.056.551-1.608a1.5 1.5 0 0 0 .14-2.67v-.645l3.44 1.668a2.25 2.25 0 0 0 2.121 0z"/><path d="M4.463 19.462c.419-.419.753-.891 1.001-1.395l1.346.661a6.74 6.74 0 0 1-1.286 1.794.75.75 0 1 1-1.061-1.061z"/></svg>