<svg xmlns="http://www.w3.org/2000/svg" width="20" height="20" fill="#a685fa" xmlns:v="https://vecta.io/nano"><path d="M5 2.5A2.5 2.5 0 0 0 2.5 5v1.875a2.5 2.5 0 0 0 2.5 2.5h1.875a2.5 2.5 0 0 0 2.5-2.5V5a2.5 2.5 0 0 0-2.5-2.5H5zm8.125 0a2.5 2.5 0 0 0-2.5 2.5v1.875a2.5 2.5 0 0 0 2.5 2.5H15a2.5 2.5 0 0 0 2.5-2.5V5A2.5 2.5 0 0 0 15 2.5h-1.875zM5 10.625a2.5 2.5 0 0 0-2.5 2.5V15A2.5 2.5 0 0 0 5 17.5h1.875a2.5 2.5 0 0 0 2.5-2.5v-1.875a2.5 2.5 0 0 0-2.5-2.5H5zm9.688.625c0-.345-.28-.625-.625-.625s-.625.28-.625.625v2.188H11.25c-.345 0-.625.28-.625.625s.28.625.625.625h2.188v2.188c0 .345.28.625.625.625s.625-.28.625-.625v-2.187h2.188c.345 0 .625-.28.625-.625s-.28-.625-.625-.625h-2.187V11.25z"/></svg>