<svg xmlns="http://www.w3.org/2000/svg" width="20" height="21" fill="none" xmlns:v="https://vecta.io/nano"><g clip-path="url(#A)"><g clip-path="url(#B)" fill="#fff"><path d="M.269 14.262h9.841v1.808h6.152v-1.804h2.444c.158 2.15.171 4.065-2.035 5.524-.027.018-.049.042-.108.095l.803.668-.973.931-.946-.963c-.101-.093-.279-.131-.424-.141-.238-.014-.48.024-.72.025l-9.586.001c-.153 0-.317.029-.458-.013-.426-.128-.697.07-.95.375-.216.26-.462.494-.688.732l-.884-.93.755-.669-.494-.354a4.24 4.24 0 0 1-1.723-3.255c-.037-.664-.006-1.332-.006-2.03H.27zm.007-4.975l-.014-.333V3.733C.264 1.821 1.591.486 3.501.5c.641.005 1.302-.009 1.918.137C6.512.895 7.2 1.653 7.532 2.721a.46.46 0 0 0 .376.37c1.286.349 2.188 1.551 2.205 2.892v.667H4.026c-.29-1.535.544-3.119 2.288-3.614-.158-.685-.832-1.263-1.54-1.288a21.51 21.51 0 0 0-1.608 0c-.923.036-1.665.883-1.669 1.899L1.495 8.9v.386H.274l.001.001z"/><path d="M10.093 13.033h-.322c-3.128 0-6.256.001-9.383-.001-.673 0-1.157-.319-1.327-.862-.256-.818.324-1.607 1.208-1.618l2.822-.003h6.628.376v2.484.001zm4.931 1.838h-3.66l-.016-.326V10.74c.001-.917.502-1.422 1.415-1.426l1.017.002c.761.024 1.258.536 1.26 1.299v3.97c0 .086-.009.171-.016.286zm1.259-1.85v-2.473l1.767.001c.305.001.617-.024.916.026.652.108 1.076.642 1.05 1.265-.026.612-.477 1.136-1.118 1.17l-2.615.011-.001.001z"/></g></g><defs><clipPath id="A"><path fill="#fff" transform="translate(0 .5)" d="M0 0h20v20H0z"/></clipPath><clipPath id="B"><path fill="#fff" transform="translate(-1 .5)" d="M0 0h21.017v21H0z"/></clipPath></defs></svg>