<svg xmlns="http://www.w3.org/2000/svg" width="20" height="21" fill="none" xmlns:v="https://vecta.io/nano"><g clip-path="url(#A)"><g clip-path="url(#B)" fill="#fff"><path d="M10.012 17.96H1.018c-.303 0-.443.139-.443.438l-.001.232a2.31 2.31 0 0 1-.033.277c-.065.331-.382.596-.761.592s-.697-.287-.754-.65a1.68 1.68 0 0 1-.02-.259l.004-5.284c.009-1.026.389-1.919 1.116-2.663a3.93 3.93 0 0 1 1.568-.977c.472-.16.961-.209 1.458-.209l13.834.003a3.9 3.9 0 0 1 3.257 1.605 3.63 3.63 0 0 1 .717 1.772 5.66 5.66 0 0 1 .04.664l.002 5.13c0 .268-.067.511-.291.688a.74.74 0 0 1-.781.122c-.269-.11-.439-.312-.478-.601-.02-.146-.017-.295-.021-.443-.006-.238-.106-.381-.306-.425-.044-.01-.091-.009-.136-.009h-8.974l-.002-.001zM9.902 2.5h5.833c.651 0 1.26.143 1.785.54.676.509 1.07 1.18 1.103 2.022l.019 2.144v1.381a.47.47 0 0 1-.013.124c-.034.125-.102.174-.232.15-.141-.026-.277-.083-.418-.098l-.997-.078c-.222-.012-.291-.051-.322-.266-.101-.681-.741-1.293-1.56-1.284l-2.739.002c-.68 0-1.26.398-1.491 1.026-.033.09-.046.188-.063.282-.032.17-.096.233-.268.236h-1.08c-.165-.002-.231-.066-.261-.254-.042-.264-.146-.5-.316-.707-.308-.375-.706-.579-1.198-.581l-2.828-.001c-.792.001-1.412.61-1.512 1.279-.032.216-.098.254-.32.268l-1.102.097c-.113.012-.22.06-.332.078-.12.019-.176-.021-.21-.137a.51.51 0 0 1-.02-.143l.003-3.314c.02-1.156.562-2.005 1.624-2.519.42-.202.876-.248 1.338-.248h5.577z"/></g></g><defs><clipPath id="A"><path fill="#fff" transform="translate(0 .5)" d="M0 0h20v20H0z"/></clipPath><clipPath id="B"><path fill="#fff" transform="translate(-1 2.5)" d="M0 0h22v17H0z"/></clipPath></defs></svg>