<svg xmlns="http://www.w3.org/2000/svg" width="18" height="18" fill="none" stroke="#999" stroke-linejoin="round" xmlns:v="https://vecta.io/nano"><path d="M2.813 4.5A1.69 1.69 0 0 1 4.5 2.813h1.688A1.69 1.69 0 0 1 7.875 4.5v1.688a1.69 1.69 0 0 1-1.687 1.688H4.5a1.69 1.69 0 0 1-1.687-1.687V4.5zm0 7.313A1.69 1.69 0 0 1 4.5 10.125h1.688a1.69 1.69 0 0 1 1.688 1.688V13.5a1.69 1.69 0 0 1-1.687 1.688H4.5A1.69 1.69 0 0 1 2.813 13.5v-1.687zM10.125 4.5a1.69 1.69 0 0 1 1.688-1.687H13.5A1.69 1.69 0 0 1 15.188 4.5v1.688A1.69 1.69 0 0 1 13.5 7.875h-1.687a1.69 1.69 0 0 1-1.687-1.687V4.5zm0 7.313a1.69 1.69 0 0 1 1.688-1.687H13.5a1.69 1.69 0 0 1 1.688 1.688V13.5a1.69 1.69 0 0 1-1.687 1.688h-1.687a1.69 1.69 0 0 1-1.687-1.687v-1.687z"/></svg>