<svg xmlns="http://www.w3.org/2000/svg" width="20" height="21" fill="none" xmlns:v="https://vecta.io/nano"><path fill-rule="evenodd" d="M4 17V4h-.25a.75.75 0 1 1 0-1.5h12.5a.75.75 0 1 1 0 1.5H16v13h.25a.75.75 0 1 1 0 1.5h-3.5a.75.75 0 0 1-.75-.75v-2.5a.75.75 0 0 0-.75-.75h-2.5a.75.75 0 0 0-.75.75v2.5a.75.75 0 0 1-.75.75h-3.5a.75.75 0 1 1 0-1.5H4zM7 6a.5.5 0 0 1 .5-.5h1A.5.5 0 0 1 9 6v1a.5.5 0 0 1-.5.5h-1A.5.5 0 0 1 7 7V6zm.5 3.5a.5.5 0 0 0-.5.5v1a.5.5 0 0 0 .5.5h1A.5.5 0 0 0 9 11v-1a.5.5 0 0 0-.5-.5h-1zM11 6a.5.5 0 0 1 .5-.5h1a.5.5 0 0 1 .5.5v1a.5.5 0 0 1-.5.5h-1A.5.5 0 0 1 11 7V6zm.5 3.5a.5.5 0 0 0-.5.5v1a.5.5 0 0 0 .5.5h1a.5.5 0 0 0 .5-.5v-1a.5.5 0 0 0-.5-.5h-1z" fill="#fff"/></svg>