<svg xmlns="http://www.w3.org/2000/svg" width="28" height="28" fill="none" xmlns:v="https://vecta.io/nano"><path fill-rule="evenodd" d="M3.5 7.875c0-.483.392-.875.875-.875h19.25c.483 0 .875.392.875.875s-.392.875-.875.875H4.375c-.483 0-.875-.392-.875-.875zM3.5 14c0-.483.392-.875.875-.875h19.25c.483 0 .875.392.875.875s-.392.875-.875.875H4.375c-.483 0-.875-.392-.875-.875zm9.625 6.125c0-.483.392-.875.875-.875h9.625c.483 0 .875.392.875.875s-.392.875-.875.875H14c-.483 0-.875-.392-.875-.875z" fill="#fff"/></svg>