<svg xmlns="http://www.w3.org/2000/svg" width="20" height="20" fill="#a685fa" xmlns:v="https://vecta.io/nano"><path d="M10 6.25c-1.036 0-1.875.839-1.875 1.875S8.964 10 10 10s1.875-.839 1.875-1.875S11.036 6.25 10 6.25z"/><path fill-rule="evenodd" d="M1.25 4.063c0-.863.7-1.562 1.563-1.562h14.375c.863 0 1.563.7 1.563 1.563v8.125c0 .863-.7 1.563-1.562 1.563H2.813c-.863 0-1.562-.7-1.562-1.562V4.063zm5.625 4.063C6.875 6.399 8.274 5 10 5s3.125 1.399 3.125 3.125S11.726 11.25 10 11.25 6.875 9.851 6.875 8.125zm8.75-.625c-.345 0-.625.28-.625.625v.006c0 .345.28.625.625.625h.006c.345 0 .625-.28.625-.625v-.006c0-.345-.28-.625-.625-.625h-.006zM3.75 8.125c0-.345.28-.625.625-.625h.006c.345 0 .625.28.625.625v.006c0 .345-.28.625-.625.625h-.006c-.345 0-.625-.28-.625-.625v-.006z"/><path d="M1.875 15c-.345 0-.625.28-.625.625s.28.625.625.625a49.43 49.43 0 0 1 13 1.729c.992.27 2-.465 2-1.517v-.838c0-.345-.28-.625-.625-.625H1.875z"/></svg>