<svg xmlns="http://www.w3.org/2000/svg" width="20" height="20" fill="#a685fa" xmlns:v="https://vecta.io/nano"><path d="M15.313 1.875c-.863 0-1.562.7-1.562 1.563v13.125c0 .863.7 1.563 1.563 1.563h.625c.863 0 1.563-.7 1.563-1.562V3.438c0-.863-.7-1.562-1.562-1.562h-.625zM8.125 7.188c0-.863.7-1.562 1.563-1.562h.625c.863 0 1.563.7 1.563 1.563v9.375c0 .863-.7 1.563-1.562 1.563h-.625c-.863 0-1.562-.7-1.562-1.562V7.188zM2.5 10.938c0-.863.7-1.562 1.563-1.562h.625c.863 0 1.563.7 1.563 1.563v5.625c0 .863-.7 1.563-1.562 1.563h-.625c-.863 0-1.562-.7-1.562-1.562V10.94z"/></svg>