<svg xmlns="http://www.w3.org/2000/svg" width="20" height="20" fill="none" xmlns:v="https://vecta.io/nano"><path d="M14.167 5.833H15v.833c0 .221.088.433.244.589s.368.244.589.244.433-.088.589-.244.244-.368.244-.589v-.833h.833c.221 0 .433-.088.589-.244s.244-.368.244-.589-.088-.433-.244-.589-.368-.244-.589-.244h-.833v-.833c0-.221-.088-.433-.244-.589s-.368-.244-.589-.244-.433.088-.589.244-.244.368-.244.589v.833h-.833c-.221 0-.433.088-.589.244s-.244.368-.244.589.088.433.244.589.368.244.589.244zM17.5 9.167c-.221 0-.433.088-.589.244s-.244.368-.244.589v5c0 .221-.088.433-.244.589s-.368.244-.589.244H4.167c-.221 0-.433-.088-.589-.244s-.244-.368-.244-.589V7.008l4.9 4.908a2.5 2.5 0 0 0 3.533 0l2.058-2.058c.157-.157.245-.37.245-.592s-.088-.435-.245-.592-.37-.245-.592-.245-.435.088-.592.245l-2.058 2.058c-.156.153-.365.238-.583.238s-.428-.086-.583-.238l-4.908-4.9h6.325c.221 0 .433-.088.589-.244s.244-.368.244-.589-.088-.433-.244-.589-.368-.244-.589-.244H4.167a2.5 2.5 0 0 0-2.5 2.5V15a2.5 2.5 0 0 0 2.5 2.5h11.667a2.5 2.5 0 0 0 2.5-2.5v-5c0-.221-.088-.433-.244-.589s-.368-.244-.589-.244z" fill="#999"/></svg>