<svg xmlns="http://www.w3.org/2000/svg" width="20" height="20" fill="none" xmlns:v="https://vecta.io/nano"><path fill-rule="evenodd" d="M10.803 1.905c-.101-.136-.254-.225-.422-.246s-.338.027-.471.133C8.351 3.045 7.265 4.865 6.961 6.939a6.29 6.29 0 0 1-1.421-1.43c-.108-.151-.278-.246-.464-.26s-.367.057-.496.191C3.292 6.787 2.5 8.614 2.5 10.625a7.5 7.5 0 1 0 15 0c0-3.051-1.821-5.675-4.433-6.846-.924-.451-1.688-1.101-2.264-1.874zm2.322 9.97C13.125 13.601 11.726 15 10 15s-3.125-1.399-3.125-3.125c0-.341.055-.669.156-.977a4.98 4.98 0 0 0 1.778.834 4.99 4.99 0 0 1 1.604-2.955c1.531.202 2.713 1.512 2.713 3.098z" fill="#a685fa"/></svg>