<svg xmlns="http://www.w3.org/2000/svg" width="20" height="20" fill="#a685fa" xmlns:v="https://vecta.io/nano"><path d="M2.879 7.121a3 3 0 0 0 4.243 0 3.05 3.05 0 0 0 .379-.462C8.038 7.467 8.957 8 10 8a3 3 0 0 0 2.5-1.341 3.11 3.11 0 0 0 .379.463 3 3 0 0 0 4.243-4.243l-.293-.293A2 2 0 0 0 15.415 2H4.586a2 2 0 0 0-1.414.586l-.293.293a3 3 0 0 0 0 4.243zM3 9.032a4.51 4.51 0 0 0 4.501-.29A4.48 4.48 0 0 0 10 9.5a4.48 4.48 0 0 0 2.5-.758 4.51 4.51 0 0 0 4.5.291V16.5h.25a.75.75 0 1 1 0 1.5h-4.5a.75.75 0 0 1-.75-.75v-3.5a.75.75 0 0 0-.75-.75h-2.5a.75.75 0 0 0-.75.75v3.5a.75.75 0 0 1-.75.75h-4.5a.75.75 0 1 1 0-1.5H3V9.032z"/></svg>