<svg xmlns="http://www.w3.org/2000/svg" width="20" height="20" fill="#a685fa" xmlns:v="https://vecta.io/nano"><path d="M14.068 3.621a19.26 19.26 0 0 1-5.504 1.306L6.875 5H6.25C3.834 5 1.875 6.959 1.875 9.375a4.38 4.38 0 0 0 3.642 4.314 18.03 18.03 0 0 0 1.148 3.284c.387.836 1.395 1.1 2.152.663l.547-.316c.733-.423.971-1.327.643-2.057a14.29 14.29 0 0 1-.523-1.339 19.24 19.24 0 0 1 4.583 1.205c.605-1.808.932-3.742.932-5.754s-.328-3.946-.932-5.754zm1.149-.504a19.35 19.35 0 0 1 1.033 6.258 19.35 19.35 0 0 1-1.033 6.258l-.142.402c-.119.324.048.683.372.802s.683-.048.802-.372l.327-.967a20.54 20.54 0 0 0 .852-4.391c.431-.449.697-1.059.697-1.731a2.49 2.49 0 0 0-.697-1.731 20.55 20.55 0 0 0-.852-4.391l-.327-.967c-.119-.324-.478-.491-.802-.372s-.491.478-.372.802l.142.402z"/></svg>