<svg xmlns="http://www.w3.org/2000/svg" width="20" height="20" fill="#a685fa" xmlns:v="https://vecta.io/nano"><path d="M10 .625C6.203.625 3.125 3.703 3.125 7.5c0 2.542 1.38 4.762 3.429 5.95.571.331.929.84.945 1.352.009.282.206.524.481.588.293.069.591.124.894.163.27.035.5-.181.5-.453v-3.884a5.61 5.61 0 0 1-.781-.143c-.334-.086-.536-.427-.449-.761s.427-.536.761-.449c.349.09.716.138 1.094.138s.745-.048 1.094-.138c.334-.086.675.115.761.449s-.115.675-.449.761a5.61 5.61 0 0 1-.781.143V15.1c0 .272.231.488.501.453a8.7 8.7 0 0 0 .894-.163c.275-.065.472-.306.481-.588.016-.512.374-1.02.945-1.352 2.049-1.189 3.429-3.408 3.429-5.95 0-3.797-3.078-6.875-6.875-6.875z"/><path d="M7.511 16.583c.064-.339.391-.562.731-.497.569.108 1.157.165 1.759.165s1.189-.057 1.758-.165c.339-.064.666.158.731.497s-.159.666-.498.731A10.72 10.72 0 0 1 10 17.5a10.7 10.7 0 0 1-1.991-.186c-.339-.064-.562-.391-.498-.731zm.617 2.037c.036-.343.343-.593.687-.557a11.39 11.39 0 0 0 1.185.062 11.31 11.31 0 0 0 1.185-.062c.343-.036.651.213.687.557s-.213.651-.557.687c-.432.045-.871.068-1.315.068s-.883-.023-1.315-.068c-.343-.036-.592-.343-.557-.687z" fill-rule="evenodd"/></svg>