<svg xmlns="http://www.w3.org/2000/svg" width="24" height="24" fill="#fff" xmlns:v="https://vecta.io/nano"><path d="M21.427 2.578a1.94 1.94 0 0 0-1.93-.5L3.407 6.727c-.728.202-1.244.779-1.383 1.511-.142.746.354 1.694 1.002 2.09L8.057 13.4a1.31 1.31 0 0 0 1.609-.191l5.761-5.761c.29-.301.77-.301 1.06 0 .29.289.29.76 0 1.06l-5.771 5.761a1.31 1.31 0 0 0-.193 1.609l3.074 5.05c.36.599.98.94 1.66.94l.25-.011c.78-.099 1.4-.63 1.63-1.38l4.77-15.969c.21-.68.02-1.42-.48-1.93z"/><path opacity=".4" d="M9.451 19.142a.75.75 0 0 1 0 1.061l-1.366 1.365c-.146.147-.338.22-.53.22s-.384-.073-.53-.22a.75.75 0 0 1 0-1.06l1.365-1.366a.75.75 0 0 1 1.061 0zm-.784-3.788a.75.75 0 0 1 0 1.061L7.302 17.78c-.146.147-.338.22-.53.22s-.384-.073-.53-.22a.75.75 0 0 1 0-1.06l1.365-1.366a.75.75 0 0 1 1.061 0zm-3.761-1.192a.75.75 0 0 1 0 1.061L3.54 16.588c-.146.147-.338.22-.53.22s-.384-.073-.53-.22a.75.75 0 0 1 0-1.06l1.365-1.366a.75.75 0 0 1 1.061 0z"/></svg>