<svg xmlns="http://www.w3.org/2000/svg" width="20" height="20" fill="none" xmlns:v="https://vecta.io/nano"><path fill-rule="evenodd" d="M1.25 3.75a2.5 2.5 0 0 1 2.5-2.5h1.143c.717 0 1.342.488 1.516 1.184L7.33 6.12c.152.61-.075 1.252-.578 1.629l-1.078.809c-.112.084-.136.207-.105.293.946 2.583 2.998 4.635 5.581 5.581.086.032.209.007.293-.105l.809-1.078c.377-.503 1.019-.731 1.629-.578l3.686.922c.695.174 1.183.799 1.183 1.516v1.143a2.5 2.5 0 0 1-2.5 2.5h-1.875A13.13 13.13 0 0 1 1.25 5.625V3.75z" fill="#a685fa"/></svg>