<svg xmlns="http://www.w3.org/2000/svg" width="20" height="20" fill="#999" xmlns:v="https://vecta.io/nano"><path d="M15.839 3.087c.324-.118.492-.477.374-.801s-.476-.492-.801-.374L5 5.699V2.5c0-.345-.28-.625-.625-.625h-1.25c-.345 0-.625.28-.625.625v4.108l-.839.305c-.324.118-.492.477-.374.801s.477.492.801.374l13.75-5z"/><path fill-rule="evenodd" d="M2.516 9.262L15 4.722v2.851l3.339 1.214c.324.118.492.477.374.801s-.476.492-.801.374l-.411-.15v7.062h.625c.345 0 .625.28.625.625s-.28.625-.625.625H1.875c-.345 0-.625-.28-.625-.625s.28-.625.625-.625H2.5V9.268l.016-.006zM15 16.875V8.904l1.25.454v7.517H15zm-7.5-5c-.345 0-.625.28-.625.625v3.75c0 .345.28.625.625.625H10c.345 0 .625-.28.625-.625V12.5c0-.345-.28-.625-.625-.625H7.5z"/></svg>