<svg xmlns="http://www.w3.org/2000/svg" xmlns:xlink="http://www.w3.org/1999/xlink" width="20" height="20" fill="none" xmlns:v="https://vecta.io/nano"><g fill="#a685fa"><path d="M17.5 5.313c0 2.244-3.358 4.063-7.5 4.063s-7.5-1.82-7.5-4.063S5.858 1.25 10 1.25s7.5 1.819 7.5 4.063zM10 10.625c2.238 0 4.325-.489 5.899-1.341.575-.311 1.122-.697 1.58-1.154a2.24 2.24 0 0 1 .021.307c0 2.244-3.358 4.063-7.5 4.063s-7.5-1.819-7.5-4.062a2.24 2.24 0 0 1 .021-.307c.458.456 1.005.842 1.58 1.154 1.573.852 3.661 1.341 5.899 1.341z"/><use xlink:href="#B"/><use xlink:href="#B" y="3.125"/></g><defs ><path id="B" d="M10 13.75c2.238 0 4.325-.489 5.899-1.341.575-.311 1.122-.697 1.58-1.154a2.24 2.24 0 0 1 .021.307c0 2.244-3.358 4.063-7.5 4.063s-7.5-1.819-7.5-4.062c0-.103.007-.206.021-.307a6.9 6.9 0 0 0 1.58 1.154c1.573.852 3.661 1.341 5.899 1.341z"/></defs></svg>