<svg xmlns="http://www.w3.org/2000/svg" width="20" height="20" fill="#a685fa" fill-rule="evenodd" xmlns:v="https://vecta.io/nano"><path d="M7.5 3.75c.279 0 .524.185.601.453l.678 2.372c.297 1.038 1.108 1.85 2.146 2.146l2.372.678c.268.077.453.322.453.601s-.185.524-.453.601l-2.372.678c-1.038.297-1.85 1.108-2.146 2.146l-.678 2.372c-.077.268-.322.453-.601.453s-.524-.185-.601-.453l-.678-2.372c-.297-1.038-1.108-1.85-2.146-2.146l-2.372-.678c-.268-.077-.453-.322-.453-.601s.185-.524.453-.601l2.372-.678c1.038-.297 1.85-1.108 2.146-2.146l.678-2.372c.077-.268.322-.453.601-.453zm7.5-2.5c.287 0 .537.195.606.473l.216.863a2.19 2.19 0 0 0 1.592 1.592l.863.216c.278.07.473.32.473.606s-.195.537-.473.606l-.863.216a2.19 2.19 0 0 0-1.592 1.592l-.216.863c-.069.278-.319.473-.606.473s-.537-.195-.606-.473l-.216-.863a2.19 2.19 0 0 0-1.592-1.592l-.863-.216c-.278-.07-.473-.32-.473-.606s.195-.537.473-.606l.863-.216a2.19 2.19 0 0 0 1.592-1.592l.216-.863c.069-.278.319-.473.606-.473zM13.75 12.5c.269 0 .508.172.593.427l.329.986a1.25 1.25 0 0 0 .79.79l.986.329c.255.085.427.324.427.593s-.172.508-.427.593l-.986.329a1.25 1.25 0 0 0-.79.79l-.329.986c-.085.255-.324.427-.593.427s-.508-.172-.593-.427l-.329-.986a1.25 1.25 0 0 0-.79-.79l-.986-.329c-.255-.085-.427-.324-.427-.593s.172-.508.427-.593l.986-.329a1.25 1.25 0 0 0 .79-.79l.329-.986c.085-.255.324-.427.593-.427z"/></svg>