<svg xmlns="http://www.w3.org/2000/svg" xmlns:xlink="http://www.w3.org/1999/xlink" width="20" height="20" fill="none" xmlns:v="https://vecta.io/nano"><g fill="#a685fa"><path d="M10 1.875c.345 0 .625.28.625.625v1.875c0 .345-.28.625-.625.625s-.625-.28-.625-.625V2.5c0-.345.28-.625.625-.625zM6.25 10a3.75 3.75 0 1 1 7.5 0 3.75 3.75 0 1 1-7.5 0z"/><use xlink:href="#B"/><path d="M18.125 10c0 .345-.28.625-.625.625h-1.875c-.345 0-.625-.28-.625-.625s.28-.625.625-.625H17.5c.345 0 .625.28.625.625zm-3.264 5.745c.244.244.64.244.884 0s.244-.64 0-.884l-1.326-1.326c-.244-.244-.64-.244-.884 0s-.244.64 0 .884l1.326 1.326zM10 15c.345 0 .625.28.625.625V17.5c0 .345-.28.625-.625.625s-.625-.28-.625-.625v-1.875c0-.345.28-.625.625-.625z"/><use xlink:href="#B" x="-9.28" y="9.28"/><path d="M5 10c0 .345-.28.625-.625.625H2.5c-.345 0-.625-.28-.625-.625s.28-.625.625-.625h1.875c.345 0 .625.28.625.625zm.581-3.536c.244.244.64.244.884 0s.244-.64 0-.884L5.139 4.255c-.244-.244-.64-.244-.884 0s-.244.64 0 .884l1.326 1.326z"/></g><defs ><path id="B" d="M15.745 5.139c.244-.244.244-.64 0-.884s-.64-.244-.884 0l-1.326 1.326c-.244.244-.244.64 0 .884s.64.244.884 0l1.326-1.326z"/></defs></svg>