<?xml version="1.0" standalone="no"?>
<!DOCTYPE svg PUBLIC "-//W3C//DTD SVG 20010904//EN"
 "http://www.w3.org/TR/2001/REC-SVG-20010904/DTD/svg10.dtd">
<svg version="1.0" xmlns="http://www.w3.org/2000/svg"
 width="784.000000pt" height="784.000000pt" viewBox="0 0 784.000000 784.000000"
 preserveAspectRatio="xMidYMid meet">
<metadata>
Created by potrace 1.14, written by Peter Selinger 2001-2017
</metadata>
<g transform="translate(0.000000,784.000000) scale(0.100000,-0.100000)"
fill="#000000" stroke="none">
<path d="M83 5698 c2 -1140 6 -2093 10 -2118 4 -25 9 -72 13 -105 4 -33 8 -67
9 -75 10 -68 18 -119 21 -140 19 -100 22 -113 24 -120 1 -3 2 -8 2 -11 -1 -3
8 -42 19 -85 11 -43 22 -90 25 -104 7 -37 72 -249 91 -295 9 -22 22 -54 29
-72 8 -17 14 -35 14 -40 0 -32 165 -380 242 -510 26 -45 48 -86 48 -92 0 -6 5
-11 10 -11 6 0 10 -5 10 -10 0 -6 4 -16 10 -23 5 -7 40 -57 76 -112 59 -89
109 -158 139 -191 5 -7 19 -24 30 -40 11 -15 34 -44 50 -63 17 -20 39 -47 50
-60 100 -120 309 -327 440 -436 27 -22 56 -47 65 -55 9 -8 23 -19 32 -25 8 -5
62 -45 119 -89 57 -43 112 -81 122 -83 9 -3 17 -9 17 -13 0 -4 10 -12 23 -19
12 -6 34 -19 49 -29 119 -78 334 -192 513 -272 79 -36 139 -60 149 -60 6 0 24
-7 39 -15 47 -24 322 -111 416 -131 12 -3 53 -12 90 -20 36 -9 76 -18 89 -20
12 -2 34 -7 50 -10 15 -3 38 -7 52 -8 24 -3 94 -14 134 -22 11 -2 44 -6 75 -9
31 -3 76 -8 101 -10 37 -4 288 -17 325 -16 100 1 320 11 350 15 22 3 67 8 100
11 33 3 71 8 85 10 14 2 70 11 125 21 55 9 109 17 120 19 11 2 47 10 80 18 33
9 71 18 85 21 14 3 66 17 115 31 50 14 97 28 105 30 31 9 116 37 145 48 17 7
32 12 35 13 6 1 36 13 182 75 120 50 333 157 407 203 22 14 45 26 51 26 5 0
10 5 10 10 0 6 5 10 10 10 15 0 259 163 340 227 68 53 146 119 148 125 2 5 7
8 11 8 16 0 227 202 346 331 58 63 85 95 150 175 17 20 35 42 40 48 6 6 28 36
50 66 22 30 42 57 45 60 3 3 10 12 15 21 29 48 91 134 97 137 5 2 8 8 8 14 0
6 16 35 35 64 19 29 35 55 35 59 0 4 9 20 21 36 18 26 182 340 180 346 0 2 8
22 18 45 10 24 24 61 32 83 8 22 16 42 19 45 14 13 135 400 154 490 30 142 55
274 61 315 3 28 8 59 10 70 6 25 13 95 22 205 14 170 7 657 -11 740 -3 14 -7
45 -10 70 -10 80 -16 124 -27 180 -6 30 -12 64 -13 75 -2 11 -6 29 -9 40 -3
11 -8 31 -11 45 -3 14 -8 39 -11 55 -3 17 -13 53 -21 81 -8 28 -16 60 -18 70
-7 33 -47 158 -57 176 -5 10 -9 23 -9 30 0 38 -208 506 -270 608 -5 8 -41 69
-80 135 -40 66 -75 122 -78 125 -4 3 -13 17 -21 33 -8 15 -18 27 -23 27 -4 0
-8 4 -8 10 0 8 -141 202 -160 220 -3 3 -27 32 -55 65 -138 167 -426 447 -539
524 -12 8 -23 18 -26 21 -3 4 -32 26 -65 51 -33 24 -62 46 -65 49 -15 15 -161
110 -169 110 -5 0 -11 4 -13 8 -5 14 -234 144 -368 209 -127 62 -147 71 -255
116 -63 27 -288 106 -316 112 -9 2 -47 12 -85 24 -67 19 -178 47 -219 55 -11
2 -38 7 -60 11 -22 4 -42 8 -45 10 -3 2 -44 9 -90 15 -47 7 -94 14 -105 15
-11 2 -45 6 -75 9 -30 4 -75 9 -100 11 -25 3 -102 7 -171 10 -69 2 -129 5
-135 6 -29 5 -34 -3 -33 -63 1 -74 0 -286 0 -343 -1 -22 0 -71 0 -110 1 -38 1
-77 1 -85 -1 -8 -1 -67 -1 -130 0 -98 0 -173 -2 -215 -1 -17 0 -229 0 -247 2
-45 2 -77 2 -208 0 -8 0 -67 0 -130 0 -63 0 -133 0 -155 -1 -22 0 -71 0 -110
1 -38 1 -77 1 -85 -1 -8 -1 -67 -1 -130 0 -98 0 -173 -2 -215 -1 -17 0 -229 0
-247 2 -45 2 -77 2 -208 0 -8 0 -67 0 -130 0 -103 -1 -186 -2 -215 0 -5 0
-109 1 -230 2 -287 1 -319 -5 -313 -3 3 -7 29 -10 59 -4 58 -14 148 -20 189
-2 14 -7 45 -10 70 -3 25 -10 68 -15 95 -6 28 -12 60 -15 73 -2 13 -6 31 -9
40 -3 9 -8 29 -11 45 -13 69 -17 85 -31 133 -8 28 -16 60 -18 70 -7 33 -47
158 -57 176 -5 10 -9 23 -9 30 0 38 -208 506 -270 608 -5 8 -41 69 -80 135
-40 66 -75 122 -78 125 -4 3 -13 17 -21 33 -8 15 -18 27 -23 27 -4 0 -8 4 -8
10 0 8 -141 202 -160 220 -3 3 -27 32 -55 65 -138 167 -426 447 -539 524 -12
8 -23 18 -26 21 -3 4 -32 26 -65 51 -33 24 -62 46 -65 49 -15 15 -161 110
-169 110 -5 0 -11 4 -13 8 -5 14 -234 144 -368 209 -127 62 -147 71 -255 116
-63 27 -288 106 -316 112 -9 2 -47 12 -85 24 -67 19 -178 47 -219 55 -11 2
-38 7 -60 11 -22 4 -42 8 -45 10 -3 2 -44 9 -90 15 -47 7 -94 14 -105 15 -11
2 -45 6 -75 9 -30 4 -75 9 -100 12 -25 2 -107 7 -183 9 -76 2 -142 7 -148 10
-6 5 -9 -686 -6 -2067z m3834 -1550 c-3 -7 -5 -2 -5 12 0 14 2 19 5 13 2 -7 2
-19 0 -25z"/>
</g>
</svg>
