<svg width="258" height="395" viewBox="0 0 258 395" fill="none" xmlns="http://www.w3.org/2000/svg">
<g clip-path="url(#clip0_181_1247)">
<path fill-rule="evenodd" clip-rule="evenodd" d="M253.702 20.7648C254.251 21.148 254.051 21.7019 256.426 21.3567C260.315 20.0664 255.695 21.7099 256.356 21.5574C255.209 21.3668 255.767 20.6624 255.829 20.231C255.314 20.3634 254.484 20.542 253.702 20.7648Z" fill="#1A1A1A"/>
<path fill-rule="evenodd" clip-rule="evenodd" d="M-7.12201 3.09726C-0.848542 -2.87487 4.35142 -8.41556 9.1543 -13.6291C1.04109 -19.519 -6.83466 -24.9774 -15.5644 -30.7368C-18.7171 -28.1621 -22.2569 -25.5333 -26.0023 -22.782L-26.0023 -8.71055C-19.5233 -4.74518 -13.2598 -0.811919 -7.12201 3.09726Z" fill="#1A1A1A"/>
<path fill-rule="evenodd" clip-rule="evenodd" d="M-16.7057 82.0534C-9.90342 71.9454 -3.46036 63.1939 2.46191 54.0611C-6.77668 48.6147 -15.9095 42.9536 -26.0021 37.2363L-26.0021 77.0787C-22.8694 78.7222 -19.7706 80.3798 -16.7057 82.0534Z" fill="#1A1A1A"/>
<path fill-rule="evenodd" clip-rule="evenodd" d="M5.08592 49.9673C10.7468 41.9342 16.1682 34.4209 21.1367 27.4674C12.4588 21.6358 3.81287 15.8603 -5.36786 10.1089C-11.6154 16.8596 -18.5713 23.7689 -25.3256 31.6656C-14.6883 37.72 -4.75927 44.0132 5.08592 49.9673Z" fill="#1A1A1A"/>
<path fill-rule="evenodd" clip-rule="evenodd" d="M23.4535 24.1402C27.3086 17.4778 31.5607 11.5819 35.5195 5.84857C28.4399 0.558738 21.0171 -4.90569 13.2731 -10.1875C8.23475 -4.80937 3.09265 0.707239 -2.80568 6.89009C6.43291 12.782 15.1368 18.2885 23.4535 24.1402Z" fill="#1A1A1A"/>
<path fill-rule="evenodd" clip-rule="evenodd" d="M37.6241 3.23776C41.1799 -2.28486 44.7836 -7.31984 47.8105 -12.1702C41.7506 -17.0246 34.8805 -22.19 27.8727 -27.1206C23.9079 -22.6054 20.0389 -17.7932 15.5972 -12.5996C22.9961 -7.5165 30.349 -2.0882 37.6241 3.23776Z" fill="#1A1A1A"/>
<path fill-rule="evenodd" clip-rule="evenodd" d="M78.9191 249.143C82.3871 232.663 85.8052 217.52 89.0576 203.258C80.1961 197.762 71.7338 192.151 62.6528 186.897C58.8037 200.732 53.8432 215.995 48.7909 232.896C59.2487 238.395 69.1418 243.725 78.9191 249.145L78.9191 249.143Z" fill="#1A1A1A"/>
<path fill-rule="evenodd" clip-rule="evenodd" d="M88.9257 154.104C91.4758 142.599 93.99 132.477 95.8916 122.403C89.2031 117.463 82.2752 112.083 75.012 106.719C72.0269 116.548 68.8223 126.864 65.2765 137.952C73.2421 143.117 81.4231 148.74 88.9277 154.104L88.9257 154.104Z" fill="#1A1A1A"/>
<path fill-rule="evenodd" clip-rule="evenodd" d="M140.983 140.569C141.35 131.406 141.905 122.833 142.344 114.561C137.264 109.907 132.309 105.352 127.161 100.973C126.433 108.996 125.507 117.517 124.182 126.581C129.984 131.105 135.603 135.62 140.983 140.569Z" fill="#1A1A1A"/>
<path fill-rule="evenodd" clip-rule="evenodd" d="M-4.56 149.134C2.60939 135.648 9.52136 123.766 15.707 112.141C5.15947 106.042 -6.18423 99.7953 -17.506 93.5784C-20.3195 97.3832 -23.141 101.256 -26.0003 105.228L-26.0003 138.666C-18.6733 142.208 -11.5518 145.69 -4.56 149.134Z" fill="#1A1A1A"/>
<path fill-rule="evenodd" clip-rule="evenodd" d="M18.4833 106.763C23.6473 96.2371 28.4442 86.5204 33.1992 77.5943C24.4694 71.8429 15.0991 65.7162 5.43155 60.1836C-0.590496 68.8789 -6.77018 78.2324 -13.4268 88.5171C-2.27659 94.4592 8.08142 100.662 18.4833 106.763Z" fill="#1A1A1A"/>
<path fill-rule="evenodd" clip-rule="evenodd" d="M34.5242 72.708C38.9699 64.0127 42.8569 56.088 46.5703 48.5746C39.2114 43.3952 31.597 37.9308 23.853 32.4382C18.9403 39.6526 13.5249 47.5512 7.82807 55.8692C17.4378 61.5765 25.9381 67.081 34.5262 72.708L34.5242 72.708Z" fill="#1A1A1A"/>
<path fill-rule="evenodd" clip-rule="evenodd" d="M49.2779 43.9408C52.4785 36.9974 55.5993 30.4413 58.7041 24.2324C52.3568 19.2777 45.6583 14.3009 38.7763 9.31811C34.7077 15.1959 30.8207 21.3467 26.9397 28.0613C34.2986 33.2649 41.8292 38.645 49.2759 43.9408L49.2779 43.9408Z" fill="#1A1A1A"/>
<path fill-rule="evenodd" clip-rule="evenodd" d="M60.5218 20.6424C63.7104 14.9994 66.063 9.59717 68.3936 4.2371C62.4593 -0.426625 56.3954 -5.21276 50.2676 -10.1313C47.4241 -5.06226 44.1238 0.237615 40.4583 5.57963C47.2406 10.5283 54.0388 15.6977 60.5218 20.6424Z" fill="#1A1A1A"/>
<path fill-rule="evenodd" clip-rule="evenodd" d="M69.0454 1.89113C71.35 -2.87092 73.517 -7.57278 75.4346 -12.1502C70.3224 -16.2039 65.2282 -20.4923 60.132 -24.7246C57.56 -20.5686 54.7904 -16.1678 51.8213 -11.7047C57.6558 -7.11323 63.4942 -2.4776 69.0454 1.88912L69.0454 1.89113Z" fill="#1A1A1A"/>
<path fill-rule="evenodd" clip-rule="evenodd" d="M116.977 95.8139C118.031 88.1441 118.931 80.8354 120.04 73.7415C114.734 69.3166 109.618 64.8595 104.293 60.1677C102.868 66.9285 101.523 74.1248 99.6313 81.7906C105.566 86.4985 111.278 91.2184 116.977 95.8159L116.977 95.8139Z" fill="#1A1A1A"/>
<path fill-rule="evenodd" clip-rule="evenodd" d="M167.049 91.6979C166.704 85.0836 166.4 78.8024 166.117 72.8202C162.461 69.1318 158.754 65.4815 155.214 61.7168C155.178 67.701 155.262 73.6892 155.35 80.1309C159.309 83.8675 163.18 87.8228 167.049 91.6959L167.049 91.6979Z" fill="#1A1A1A"/>
<path fill-rule="evenodd" clip-rule="evenodd" d="M14.6398 220.133C21.5159 203.3 27.5958 187.864 33.2168 173.175C22.6493 167.451 11.2936 161.325 -0.872211 155.738C-8.40276 170.158 -16.0491 185.263 -24.2301 202.15C-11.0107 207.86 2.08693 214.026 14.6398 220.131L14.6398 220.133Z" fill="#1A1A1A"/>
<path fill-rule="evenodd" clip-rule="evenodd" d="M52.1054 124.83C56.0602 114.18 59.5781 104.042 63.04 94.6419C55.2162 89.1675 46.9214 83.5886 38.5348 78.1624C33.9415 87.1466 29.2763 97.042 24.5572 107.154C33.7958 113.046 43.3058 118.926 52.1034 124.828L52.1054 124.83Z" fill="#1A1A1A"/>
<path fill-rule="evenodd" clip-rule="evenodd" d="M74.2901 60.1997C76.7783 52.8409 79.051 46.1263 81.3916 39.7327C75.6888 35.0971 69.4932 30.2467 63.1239 25.593C60.1867 31.6815 57.07 38.346 53.8494 45.0747C60.925 49.9391 67.859 55.1788 74.2901 60.2017L74.2901 60.1997Z" fill="#1A1A1A"/>
<path fill-rule="evenodd" clip-rule="evenodd" d="M82.5222 36.0804C84.5655 29.9858 86.3713 24.2766 88.0215 18.8041C82.616 14.2207 77.1287 9.77169 71.6714 5.18823C69.4505 10.3938 67.2197 15.6977 64.4441 21.435C70.8173 26.4058 76.9551 31.1678 82.5222 36.0804Z" fill="#1A1A1A"/>
<path fill-rule="evenodd" clip-rule="evenodd" d="M88.6223 16.4463C90.2565 11.3732 91.8648 6.45058 93.499 1.62029C88.7341 -2.40328 84.0509 -6.42885 79.1922 -10.5427C77.2028 -6.09372 74.97 -1.39589 72.8189 3.38423C78.2084 7.85932 83.5341 12.2782 88.6243 16.4443L88.6223 16.4463Z" fill="#1A1A1A"/>
<path fill-rule="evenodd" clip-rule="evenodd" d="M122.831 46.5236C123.418 40.7762 123.863 35.2436 124.443 29.9377C120.223 26.0144 115.901 22.0129 111.639 18.0215C110.781 23.1407 109.753 28.252 108.592 33.9913C113.431 38.1774 118.244 42.3194 122.831 46.5236Z" fill="#1A1A1A"/>
<path fill-rule="evenodd" clip-rule="evenodd" d="M124.827 27.5276C125.455 22.5247 125.88 17.6362 126.465 13.2454C122.522 9.40045 118.489 5.59762 114.54 2.02759C113.698 6.37424 112.848 10.8594 112.074 15.7037C116.211 19.5487 120.62 23.6023 124.827 27.5276Z" fill="#1A1A1A"/>
<path fill-rule="evenodd" clip-rule="evenodd" d="M126.706 11.0662C127.145 6.50281 127.534 2.41101 127.915 -1.55838C124.427 -4.99597 120.688 -8.60212 117.106 -12.0337C116.388 -8.21682 115.661 -4.26951 114.781 -0.113502C118.856 3.50269 122.879 7.31756 126.706 11.0662Z" fill="#1A1A1A"/>
<path fill-rule="evenodd" clip-rule="evenodd" d="M138.659 40.0317C138.988 34.8563 139.171 29.721 139.471 25.0833C135.753 21.3668 131.972 17.6944 128.123 14.1104C127.662 18.6958 127.217 23.5823 126.652 28.4487C130.795 32.2856 134.905 36.255 138.661 40.0297L138.659 40.0317Z" fill="#1A1A1A"/>
<path fill-rule="evenodd" clip-rule="evenodd" d="M139.6 22.8278C139.674 18.1962 139.768 13.7994 139.945 9.67148C136.509 6.32219 132.912 2.63776 129.482 -0.607178C129.098 3.29799 128.801 7.54029 128.444 11.9211C132.189 15.469 135.975 19.2076 139.598 22.8278L139.6 22.8278Z" fill="#1A1A1A"/>
<path fill-rule="evenodd" clip-rule="evenodd" d="M139.962 7.6826C140.062 3.59282 140.056 -0.250139 140.146 -4.04092C137.083 -7.25977 133.824 -10.4706 130.468 -13.5891C130.274 -10.0291 130.017 -6.34669 129.568 -2.50775C132.982 0.687024 136.596 4.32127 139.964 7.68461L139.962 7.6826Z" fill="#1A1A1A"/>
<path fill-rule="evenodd" clip-rule="evenodd" d="M152.446 52.9993C152.388 47.555 152.311 42.3013 152.189 37.3927C148.601 33.8106 145.151 30.2386 141.593 26.7107C141.432 31.539 141.19 36.6181 140.971 41.7173C144.83 45.5402 148.743 49.3751 152.444 52.9993L152.446 52.9993Z" fill="#1A1A1A"/>
<path fill-rule="evenodd" clip-rule="evenodd" d="M152.027 35.1011C152.011 30.309 151.802 25.6713 151.66 21.3568C148.366 17.9653 145.071 14.5498 141.799 11.2607C141.841 15.4569 141.773 19.9541 141.564 24.4853C145.203 27.949 148.613 31.4889 152.027 35.1011Z" fill="#1A1A1A"/>
<path fill-rule="evenodd" clip-rule="evenodd" d="M151.624 19.1755C151.54 14.9272 151.373 10.8133 151.199 6.92817C148.224 3.83173 145.155 0.679104 141.928 -2.47754C141.903 1.24501 141.829 5.14817 141.767 9.17375C145.087 12.4548 148.443 15.8703 151.624 19.1735L151.624 19.1755Z" fill="#1A1A1A"/>
<path fill-rule="evenodd" clip-rule="evenodd" d="M151.18 5.144C150.96 1.27897 150.892 -2.05829 150.693 -5.58417C147.786 -8.71473 144.994 -11.5563 142.089 -14.5645C142.073 -11.2051 142.109 -7.7876 142.037 -4.12726C145.126 -1.16929 148.195 1.98937 151.18 5.144Z" fill="#1A1A1A"/>
<path fill-rule="evenodd" clip-rule="evenodd" d="M163.535 46.64C163.252 41.6572 163.058 36.9413 162.687 32.3819C159.467 29.0026 156.35 25.7396 152.994 22.4404C153.297 26.9396 153.329 31.4388 153.47 36.3152C156.833 39.6284 160.189 43.088 163.535 46.638L163.535 46.64Z" fill="#1A1A1A"/>
<path fill-rule="evenodd" clip-rule="evenodd" d="M162.365 30.1003C162.162 25.6373 161.779 21.5355 161.344 17.3975C158.452 14.2529 155.505 11.2066 152.504 8.08813C152.839 12.1077 152.849 16.0209 152.985 20.3675C156.186 23.6426 159.442 26.9337 162.365 30.1003Z" fill="#1A1A1A"/>
<path fill-rule="evenodd" clip-rule="evenodd" d="M161.183 15.4869C160.879 11.5577 160.492 7.91538 160.093 4.22695C157.391 1.24088 154.578 -1.64284 151.756 -4.64697C152.118 -1.09098 152.191 2.40079 152.479 6.30595C155.306 9.23383 158.223 12.3463 161.183 15.4869Z" fill="#1A1A1A"/>
<path fill-rule="evenodd" clip-rule="evenodd" d="M159.963 2.43107C159.654 -1.04465 159.466 -4.31769 159.157 -7.56664C156.539 -10.3721 153.951 -13.0953 151.297 -15.8787C151.459 -12.7521 151.596 -9.66773 151.752 -6.20605C154.537 -3.24808 157.245 -0.506837 159.963 2.43107Z" fill="#1A1A1A"/>
<path fill-rule="evenodd" clip-rule="evenodd" d="M172.668 41.25C172.139 36.7669 171.63 32.4443 171.112 28.0876C168.242 25.0012 165.461 21.989 162.543 18.8184C163.098 23.0928 163.34 27.1043 163.832 31.6777C166.853 34.8023 169.699 38.0492 172.668 41.25Z" fill="#1A1A1A"/>
<path fill-rule="evenodd" clip-rule="evenodd" d="M170.902 26.0846C170.467 22.0931 169.903 18.0836 169.426 14.2728C166.76 11.4452 164.068 8.49932 161.309 5.54736C161.722 9.27995 162.011 12.8841 162.346 16.9117C165.309 20.0763 168.065 23.0985 170.904 26.0846L170.902 26.0846Z" fill="#1A1A1A"/>
<path fill-rule="evenodd" clip-rule="evenodd" d="M169.212 12.4486C168.809 8.90468 168.332 5.42896 167.797 1.86495C165.251 -0.850208 162.92 -3.44496 160.313 -6.28052C160.622 -3.03558 160.883 0.277598 161.115 3.76335C163.89 6.65912 166.646 9.6532 169.212 12.4486Z" fill="#1A1A1A"/>
<path fill-rule="evenodd" clip-rule="evenodd" d="M167.556 0.313772C167.075 -2.83284 166.66 -5.97744 166.257 -8.96351C163.878 -11.5583 161.492 -14.2714 159.149 -16.8501C159.452 -13.8881 159.772 -10.9723 160.119 -7.89792C162.691 -5.05433 165.125 -2.36325 167.556 0.313772Z" fill="#1A1A1A"/>
<path fill-rule="evenodd" clip-rule="evenodd" d="M183.269 50.8683C182.529 46.1424 181.869 41.6794 181.128 37.3889C178.566 34.3065 175.932 31.3826 173.047 28.22C173.708 32.5446 174.179 36.9113 174.755 41.3723C177.692 44.553 180.48 47.6936 183.271 50.8663L183.269 50.8683Z" fill="#1A1A1A"/>
<path fill-rule="evenodd" clip-rule="evenodd" d="M180.915 35.3519C180.189 31.1277 179.622 27.0941 178.938 23.1367C176.398 20.3955 173.947 17.5238 171.285 14.614C171.84 18.453 172.327 22.4163 172.936 26.4238C175.601 29.3597 178.199 32.2936 180.915 35.3519Z" fill="#1A1A1A"/>
<path fill-rule="evenodd" clip-rule="evenodd" d="M190.354 46.2929C189.598 41.9964 188.768 37.8785 188.018 33.8529C185.458 30.9572 183.002 28.1256 180.537 25.29C181.188 29.0888 181.816 33.2128 182.551 37.5393C185.091 40.397 187.717 43.379 190.354 46.2949L190.354 46.2929Z" fill="#1A1A1A"/>
<path fill-rule="evenodd" clip-rule="evenodd" d="M187.667 93.0265C186.815 86.8456 186.023 81.0902 185.454 75.6158C182.319 71.9735 179.103 68.6383 176.086 65.4114C176.531 70.7253 177.169 76.3844 177.814 82.3846C181.068 85.7981 184.367 89.3481 187.665 93.0245L187.667 93.0265Z" fill="#1A1A1A"/>
<path fill-rule="evenodd" clip-rule="evenodd" d="M110.65 13.2875C111.472 8.55352 112.184 3.85769 113.352 -0.19798C109.145 -4.01686 104.903 -7.92002 100.773 -11.5422C99.6094 -7.51666 98.4261 -3.28841 97.3008 1.18869C101.888 5.28249 106.23 9.20171 110.65 13.2895L110.65 13.2875Z" fill="#1A1A1A"/>
<path fill-rule="evenodd" clip-rule="evenodd" d="M106.874 31.1658C108.022 25.603 109.047 20.4878 110.137 15.6796C105.607 11.5517 101.082 7.3816 96.3626 3.30786C94.9758 8.32478 93.2459 12.9524 91.891 18.2623C96.9293 22.6491 101.946 26.9857 106.874 31.1658Z" fill="#1A1A1A"/>
<path fill-rule="evenodd" clip-rule="evenodd" d="M102.151 51.8295C103.424 45.3236 104.628 39.5581 105.891 33.7445C100.916 29.4059 95.8519 25.0773 90.9014 20.7427C89.1095 26.171 87.3556 31.9204 85.5597 37.9527C91.3683 42.7248 96.8296 47.2601 102.151 51.8295Z" fill="#1A1A1A"/>
<path fill-rule="evenodd" clip-rule="evenodd" d="M130.907 266.907C134.175 262.811 137.473 258.801 140.484 255.137C137.138 249.217 134.021 243.323 130.488 237.371C127.026 240.692 123.396 243.981 119.683 247.957C123.47 254.374 127.235 260.788 130.907 266.905L130.907 266.907Z" fill="#1A1A1A"/>
<path fill-rule="evenodd" clip-rule="evenodd" d="M137.615 65.9973C139.254 64.3678 140.778 62.7765 142.083 61.1209C140.471 58.8151 138.753 56.413 137.119 54.041C135.568 55.514 133.902 56.9047 132.028 58.3997C133.934 60.9523 135.826 63.4989 137.615 65.9993L137.615 65.9973Z" fill="#1A1A1A"/>
<path fill-rule="evenodd" clip-rule="evenodd" d="M198.137 1.51189C199.103 0.877754 200.109 0.295796 201.116 -0.240011C199.402 -2.31501 197.546 -4.53048 195.739 -6.70581C194.579 -6.36667 193.52 -5.88705 192.384 -5.34522C194.294 -3.06955 196.236 -0.755756 198.137 1.50988L198.137 1.51189Z" fill="#1A1A1A"/>
<path fill-rule="evenodd" clip-rule="evenodd" d="M30.5966 338.372C34.5974 333.252 38.4305 328.424 41.8047 323.734C39.929 317.628 37.7082 311.636 35.5891 305.348C31.9016 309.908 27.9169 314.395 23.6228 319.006C26.0851 325.565 28.304 332.273 30.5986 338.374L30.5966 338.372Z" fill="#1A1A1A"/>
<path fill-rule="evenodd" clip-rule="evenodd" d="M185.159 16.1251C185.712 15.6214 186.251 15.2241 186.77 14.8288C185.792 13.4802 184.832 12.1237 183.874 10.8132C183.282 11.1163 182.585 11.4293 182.003 11.7805C183.05 13.2314 184.09 14.6281 185.161 16.1251L185.159 16.1251Z" fill="#1A1A1A"/>
<path fill-rule="evenodd" clip-rule="evenodd" d="M210.446 62.5937C210.963 61.3776 211.42 60.2257 211.841 59.0859C210.674 57.3661 209.466 55.6483 208.193 53.8904C207.617 54.8496 207.104 55.9032 206.441 57.1012C207.836 58.8912 209.139 60.7435 210.444 62.5937L210.446 62.5937Z" fill="#1A1A1A"/>
<path fill-rule="evenodd" clip-rule="evenodd" d="M163.094 321.238C165.073 316.418 166.801 311.937 168.43 307.678C166.151 302.172 163.968 296.958 161.653 291.969C159.736 295.816 157.772 299.868 155.358 304.401C158.066 310.221 160.751 315.876 163.094 321.238Z" fill="#1A1A1A"/>
<path fill-rule="evenodd" clip-rule="evenodd" d="M213.531 42.8815C213.876 42.147 214.329 41.5971 214.67 41.0152C213.756 39.6145 212.724 38.2799 211.729 36.9314C211.292 37.4251 210.775 37.8806 210.376 38.4766C211.399 39.8191 212.483 41.3483 213.531 42.8815Z" fill="#1A1A1A"/>
<path fill-rule="evenodd" clip-rule="evenodd" d="M221.07 12.238C221.353 11.8487 221.571 11.4233 221.832 11.04C221.052 10.0306 220.246 8.92483 219.501 7.95557C219.198 8.2907 218.891 8.58167 218.54 8.88068C219.372 9.98641 220.22 11.1343 221.07 12.238Z" fill="#1A1A1A"/>
<path fill-rule="evenodd" clip-rule="evenodd" d="M98.1385 342.074C99.7767 338.642 101.323 335.865 102.804 332.935C101.589 328.633 100.489 324.513 99.2998 320.407C97.7813 322.925 96.0115 325.777 94.3353 328.795C95.5565 333.292 96.8854 337.697 98.1385 342.074Z" fill="#1A1A1A"/>
<path fill-rule="evenodd" clip-rule="evenodd" d="M218.372 89.5448C218.727 88.3407 218.971 87.1106 219.334 86.0691C218.243 84.3934 217.109 82.6234 216.058 81.0381C215.615 82.0475 215.237 82.9927 214.822 84.1084C215.966 85.7761 217.227 87.7266 218.372 89.5448Z" fill="#1A1A1A"/>
<path fill-rule="evenodd" clip-rule="evenodd" d="M245.353 45.1751C245.495 44.4105 245.616 43.6459 245.654 42.8954C244.856 41.6351 243.944 40.4351 243.07 39.229C242.947 39.9434 242.811 40.6618 242.653 41.3823C243.595 42.6706 244.491 43.9228 245.353 45.1751Z" fill="#1A1A1A"/>
<path fill-rule="evenodd" clip-rule="evenodd" d="M212.299 26.1388C212.519 25.4445 212.675 24.7602 212.87 24.12C212.096 23.0424 211.246 21.8222 210.48 20.6904C210.252 21.3346 210.041 21.9286 209.809 22.5768C210.655 23.7969 211.451 24.9227 212.299 26.1408L212.299 26.1388Z" fill="#1A1A1A"/>
<path fill-rule="evenodd" clip-rule="evenodd" d="M194.497 9.77776C194.724 9.08342 194.986 8.43323 195.153 7.79508C194.465 6.77965 193.727 5.6639 193.04 4.59229C192.813 5.23646 192.573 5.88062 192.302 6.48065C193.026 7.54624 193.755 8.66401 194.497 9.77776Z" fill="#1A1A1A"/>
<path fill-rule="evenodd" clip-rule="evenodd" d="M184.975 117.802C185.368 116.295 185.769 114.85 186.141 113.461C185.157 111.633 184.221 109.853 183.191 107.925C182.866 109.351 182.421 110.752 182.008 112.151C183.022 113.969 184.028 115.96 184.975 117.802Z" fill="#1A1A1A"/>
<path fill-rule="evenodd" clip-rule="evenodd" d="M205.328 1.14065C205.474 0.576744 205.53 0.0248885 205.634 -0.534999C205.075 -1.35577 204.451 -2.21667 203.926 -3.04346C203.826 -2.5819 203.682 -2.02002 203.523 -1.55043C204.151 -0.639363 204.758 0.22556 205.326 1.14065L205.328 1.14065Z" fill="#1A1A1A"/>
<path fill-rule="evenodd" clip-rule="evenodd" d="M61.374 415C62.7508 410.421 64.385 405.578 65.8037 400.684C64.834 396.15 64.1436 391.254 63.2955 386.65C61.9506 391.051 60.3743 395.817 58.8119 400.22C59.6759 405.364 60.4721 410.122 61.372 415L61.374 415Z" fill="#1A1A1A"/>
<path fill-rule="evenodd" clip-rule="evenodd" d="M237.126 63.0654C237.086 62.0559 237.076 61.1469 237.068 60.2378C236.392 59.1722 235.685 58.0605 234.929 56.9126C234.971 57.8176 234.895 58.6464 234.903 59.5595C235.657 60.7074 236.42 61.8573 237.126 63.0633L237.126 63.0654Z" fill="#1A1A1A"/>
<path fill-rule="evenodd" clip-rule="evenodd" d="M150.242 188.831C150.797 186.552 151.128 184.109 151.631 181.784C150.835 179.492 150.138 177.407 149.32 175.358C148.933 177.469 148.388 179.755 147.844 182.141C148.666 184.37 149.456 186.66 150.242 188.829L150.242 188.831Z" fill="#1A1A1A"/>
<path fill-rule="evenodd" clip-rule="evenodd" d="M108.902 181.049C110.185 178.992 111.462 176.957 112.573 174.911C111.474 172.045 110.181 169.123 108.934 166.181C107.667 168.086 106.431 169.978 104.991 171.89C106.435 175.079 107.647 178.099 108.904 181.049L108.902 181.049Z" fill="#1A1A1A"/>
<path fill-rule="evenodd" clip-rule="evenodd" d="M159.951 131.243C161.008 129.389 161.952 127.679 162.872 126.092C161.521 123.652 160.087 121.109 158.626 118.569C157.646 120.166 156.469 121.593 155.457 123.373C156.972 126.074 158.478 128.653 159.951 131.243Z" fill="#1A1A1A"/>
</g>
<defs>
<clipPath id="clip0_181_1247">
<rect width="522" height="284" fill="white" transform="translate(258 -107) rotate(90)"/>
</clipPath>
</defs>
</svg>
