<svg xmlns="http://www.w3.org/2000/svg" width="161" height="48" fill="none" xmlns:v="https://vecta.io/nano"><g fill="#703bf7"><path d="M24.333 48c-13.253 0-24-10.747-24-24h24v24z"/><path d="M.333 0c13.253 0 24 10.747 24 24h-24V0z"/><path d="M24.333 48c13.253 0 24-10.747 24-24h-24v24z"/><path d="M48.333 24c0-13.253-10.747-24-24-24v24h24z"/></g><path d="M157.154 34.86v-8.007c0-.925-.299-1.686-.896-2.283-.578-.597-1.33-.896-2.255-.896-.617 0-1.166.135-1.648.405a2.89 2.89 0 0 0-1.127 1.127c-.27.482-.405 1.031-.405 1.648l-1.242-.694c0-1.06.231-1.995.693-2.804a4.99 4.99 0 0 1 1.908-1.937c.829-.482 1.754-.723 2.775-.723 1.04 0 1.965.27 2.775.809a5.58 5.58 0 0 1 1.908 2.052 5.27 5.27 0 0 1 .693 2.602v8.701h-3.179zm-9.51 0V20.986h3.179V34.86h-3.179zm-6.746 0V20.986h3.18V34.86h-3.18zm1.59-16.418c-.54 0-.992-.183-1.359-.549-.346-.366-.52-.819-.52-1.358s.174-.992.52-1.359c.367-.366.819-.549 1.359-.549.559 0 1.012.183 1.359.549s.52.819.52 1.359a1.9 1.9 0 0 1-.52 1.358c-.346.366-.8.549-1.359.549zm-10.614 16.707c-1.387 0-2.64-.308-3.757-.925-1.099-.636-1.975-1.503-2.631-2.602-.636-1.098-.953-2.332-.953-3.7s.317-2.592.953-3.671a7.09 7.09 0 0 1 2.573-2.601c1.098-.636 2.312-.954 3.642-.954 1.291 0 2.428.299 3.411.896a6.24 6.24 0 0 1 2.341 2.457c.578 1.041.867 2.226.867 3.555a4.82 4.82 0 0 1-.057.723c-.02.231-.058.491-.116.78h-11.389v-2.601h9.741l-1.185 1.041c-.038-.848-.202-1.561-.491-2.139a3.08 3.08 0 0 0-1.243-1.33c-.52-.308-1.166-.463-1.937-.463-.809 0-1.512.174-2.11.52a3.52 3.52 0 0 0-1.387 1.474c-.328.617-.492 1.359-.492 2.226s.174 1.628.521 2.284.838 1.166 1.474 1.532c.636.347 1.368.52 2.197.52.713 0 1.368-.125 1.965-.376a4.1 4.1 0 0 0 1.561-1.098l2.023 2.052a6.48 6.48 0 0 1-2.457 1.792 7.82 7.82 0 0 1-3.064.607zm-14.864-.289V15.205h3.18V34.86h-3.18zm-3.324-10.984v-2.89h9.828v2.89h-9.828zm-9.743 11.273a6.32 6.32 0 0 1-3.411-.954c-1.002-.636-1.802-1.494-2.399-2.573-.578-1.098-.867-2.322-.867-3.671 0-1.368.289-2.592.867-3.671.597-1.098 1.397-1.966 2.399-2.601 1.021-.655 2.158-.983 3.411-.983 1.059 0 1.994.231 2.803.694.829.443 1.484 1.06 1.966 1.85s.723 1.686.723 2.688v3.989c0 1.002-.241 1.898-.723 2.688a5.05 5.05 0 0 1-1.937 1.879c-.828.443-1.773.665-2.832.665zm.52-3.006c1.175 0 2.12-.395 2.833-1.185.732-.79 1.098-1.802 1.098-3.035 0-.829-.164-1.561-.491-2.197a3.54 3.54 0 0 0-1.388-1.474c-.578-.366-1.262-.549-2.052-.549-.771 0-1.455.183-2.052.549a3.79 3.79 0 0 0-1.388 1.474c-.327.636-.491 1.368-.491 2.197s.164 1.561.491 2.197a4.01 4.01 0 0 0 1.388 1.503c.597.347 1.281.52 2.052.52zm3.729 2.717v-3.729l.549-3.382-.549-3.353v-3.411h3.179V34.86h-3.179zm-18.479 0V15.205h3.18V34.86h-3.18zm-3.324-10.984v-2.89h9.828v2.89h-9.828zm-6.668 11.273c-.771 0-1.513-.096-2.226-.289a8.25 8.25 0 0 1-1.966-.867c-.597-.385-1.118-.848-1.561-1.387l2.023-2.023a4.93 4.93 0 0 0 1.648 1.272c.636.27 1.349.405 2.139.405.713 0 1.253-.106 1.619-.318s.549-.52.549-.925a1.11 1.11 0 0 0-.52-.983c-.347-.231-.8-.424-1.358-.578l-1.734-.52a9.57 9.57 0 0 1-1.734-.694 3.91 3.91 0 0 1-1.33-1.243c-.347-.52-.52-1.195-.52-2.023 0-.886.202-1.648.607-2.283.424-.636 1.012-1.127 1.763-1.474.771-.347 1.686-.52 2.746-.52 1.118 0 2.1.202 2.948.607.867.385 1.59.973 2.168 1.763l-2.023 2.023c-.405-.501-.867-.877-1.388-1.127s-1.118-.376-1.792-.376c-.636 0-1.127.096-1.474.289s-.52.472-.52.838c0 .385.174.684.52.896s.79.395 1.33.549l1.734.52a6.95 6.95 0 0 1 1.734.752 3.74 3.74 0 0 1 1.359 1.272c.347.52.52 1.204.52 2.052 0 1.349-.472 2.418-1.416 3.208s-2.226 1.185-3.844 1.185zm-21.154-.289V14.627h3.324V34.86h-3.324zm2.284 0v-3.035h11.331v3.035H60.851zm0-8.874v-2.919h10.348v2.919H60.851zm0-8.325v-3.035h11.186v3.035H60.851z" fill="#fff"/></svg>